<svg width="66" height="9" viewBox="0 0 66 9" fill="none" xmlns="http://www.w3.org/2000/svg">
<g id="Fortress Hill">
<path d="M0 8.87867V0.248528H1.47164V8.87867H0ZM1.01095 5.18004V3.88551H5.56665V5.18004H1.01095ZM1.01095 1.54305V0.248528H5.7842V1.54305H1.01095Z" fill="#8C8C8C"/>
<path d="M9.63416 9.00195C9.03697 9.00195 8.49524 8.86634 8.00896 8.5951C7.52268 8.31565 7.1345 7.94168 6.84444 7.47319C6.56291 7.00469 6.42214 6.48278 6.42214 5.90743C6.42214 5.33209 6.56291 4.81428 6.84444 4.35401C7.1345 3.89373 7.52268 3.52798 8.00896 3.25675C8.49524 2.9773 9.03697 2.83757 9.63416 2.83757C10.2399 2.83757 10.7859 2.97319 11.2722 3.24442C11.7584 3.51565 12.1424 3.88551 12.4239 4.35401C12.714 4.81428 12.859 5.33209 12.859 5.90743C12.859 6.48278 12.714 7.00469 12.4239 7.47319C12.1424 7.94168 11.7584 8.31565 11.2722 8.5951C10.7859 8.86634 10.2399 9.00195 9.63416 9.00195ZM9.63416 7.6951C9.98395 7.6951 10.2911 7.62113 10.5555 7.47319C10.8285 7.31702 11.0376 7.10332 11.1826 6.83209C11.3362 6.56086 11.4129 6.25264 11.4129 5.90743C11.4129 5.56223 11.3362 5.25812 11.1826 4.9951C11.029 4.73209 10.82 4.52661 10.5555 4.37867C10.2911 4.2225 9.98395 4.14442 9.63416 4.14442C9.29291 4.14442 8.98579 4.2225 8.71279 4.37867C8.44832 4.52661 8.2393 4.73209 8.08574 4.9951C7.94071 5.25812 7.86819 5.56223 7.86819 5.90743C7.86819 6.25264 7.94071 6.56086 8.08574 6.83209C8.2393 7.10332 8.44832 7.31702 8.71279 7.47319C8.98579 7.62113 9.29291 7.6951 9.63416 7.6951Z" fill="#8C8C8C"/>
<path d="M14.0296 8.87867V2.96086H15.4373V8.87867H14.0296ZM15.4373 5.58688L14.951 5.35264C14.951 4.60469 15.1216 4.00058 15.4629 3.54031C15.8126 3.07182 16.3373 2.83757 17.0369 2.83757C17.344 2.83757 17.6213 2.89099 17.8687 2.99784C18.1161 3.10469 18.3464 3.2773 18.5597 3.51565L17.6383 4.42798C17.5274 4.31291 17.4037 4.23072 17.2672 4.18141C17.1307 4.13209 16.9729 4.10743 16.7937 4.10743C16.4013 4.10743 16.0771 4.22661 15.8212 4.46497C15.5652 4.70332 15.4373 5.0773 15.4373 5.58688Z" fill="#8C8C8C"/>
<path d="M20.1875 8.87867V0.495104H21.5952V8.87867H20.1875ZM18.7159 4.19373V2.96086H23.0668V4.19373H18.7159Z" fill="#8C8C8C"/>
<path d="M24.0897 8.87867V2.96086H25.4973V8.87867H24.0897ZM25.4973 5.58688L25.011 5.35264C25.011 4.60469 25.1817 4.00058 25.5229 3.54031C25.8727 3.07182 26.3974 2.83757 27.0969 2.83757C27.4041 2.83757 27.6813 2.89099 27.9287 2.99784C28.1761 3.10469 28.4065 3.2773 28.6198 3.51565L27.6984 4.42798C27.5875 4.31291 27.4638 4.23072 27.3273 4.18141C27.1908 4.13209 27.0329 4.10743 26.8538 4.10743C26.4613 4.10743 26.1372 4.22661 25.8812 4.46497C25.6253 4.70332 25.4973 5.0773 25.4973 5.58688Z" fill="#8C8C8C"/>
<path d="M31.9671 9.00195C31.3529 9.00195 30.7984 8.87045 30.3036 8.60743C29.8173 8.3362 29.4291 7.96634 29.139 7.49784C28.8575 7.02935 28.7167 6.50332 28.7167 5.91976C28.7167 5.3362 28.8575 4.81428 29.139 4.35401C29.4206 3.88551 29.8002 3.51565 30.278 3.24442C30.7642 2.97319 31.3017 2.83757 31.8904 2.83757C32.462 2.83757 32.9653 2.96497 33.4004 3.21976C33.844 3.47456 34.1895 3.82387 34.437 4.26771C34.6929 4.71154 34.8209 5.21702 34.8209 5.78414C34.8209 5.88278 34.8123 5.98551 34.7953 6.09236C34.7867 6.19099 34.7697 6.30195 34.7441 6.42524H29.7021V5.31565H34.0147L33.49 5.75949C33.4729 5.39784 33.4004 5.09373 33.2724 4.84716C33.1445 4.60058 32.961 4.41154 32.7222 4.28004C32.4918 4.14853 32.206 4.08278 31.8648 4.08278C31.5065 4.08278 31.1951 4.15675 30.9306 4.30469C30.6661 4.45264 30.4614 4.66223 30.3164 4.93346C30.1713 5.19647 30.0988 5.51291 30.0988 5.88277C30.0988 6.25264 30.1756 6.5773 30.3291 6.85675C30.4827 7.1362 30.7003 7.35401 30.9818 7.51017C31.2633 7.65812 31.5875 7.73209 31.9544 7.73209C32.27 7.73209 32.5601 7.67867 32.8245 7.57182C33.0975 7.46497 33.3279 7.3088 33.5156 7.10332L34.4114 7.97867C34.1128 8.31565 33.7502 8.57045 33.3236 8.74305C32.8971 8.91565 32.4449 9.00195 31.9671 9.00195Z" fill="#8C8C8C"/>
<path d="M37.9584 9.00195C37.6171 9.00195 37.2887 8.96086 36.973 8.87867C36.6574 8.78825 36.3673 8.66497 36.1028 8.5088C35.8384 8.34442 35.608 8.14716 35.4118 7.91702L36.3076 7.05401C36.5209 7.29236 36.764 7.47319 37.037 7.59647C37.3186 7.71154 37.6342 7.76908 37.984 7.76908C38.2996 7.76908 38.5385 7.72387 38.7006 7.63346C38.8627 7.54305 38.9438 7.41154 38.9438 7.23894C38.9438 7.05812 38.867 6.91839 38.7134 6.81976C38.5598 6.72113 38.3594 6.63894 38.112 6.57319C37.8731 6.49921 37.6171 6.42524 37.3441 6.35127C37.0797 6.2773 36.8237 6.17867 36.5763 6.05538C36.3375 5.92387 36.1412 5.74716 35.9877 5.52524C35.8341 5.30332 35.7573 5.01565 35.7573 4.66223C35.7573 4.28414 35.8469 3.95949 36.0261 3.68825C36.2138 3.41702 36.474 3.20743 36.8067 3.05949C37.1479 2.91154 37.5532 2.83757 38.0224 2.83757C38.5172 2.83757 38.9523 2.92387 39.3277 3.09647C39.7116 3.26086 40.0315 3.51154 40.2874 3.84853L39.3917 4.71154C39.2125 4.49784 39.0077 4.33757 38.7774 4.23072C38.5471 4.12387 38.2826 4.07045 37.984 4.07045C37.7025 4.07045 37.4849 4.11154 37.3313 4.19373C37.1778 4.27593 37.101 4.3951 37.101 4.55127C37.101 4.71565 37.1778 4.84305 37.3313 4.93346C37.4849 5.02387 37.6811 5.10195 37.92 5.16771C38.1674 5.23346 38.4234 5.30743 38.6878 5.38962C38.9608 5.4636 39.2168 5.57045 39.4556 5.71017C39.703 5.84168 39.9035 6.0225 40.0571 6.25264C40.2107 6.47456 40.2874 6.76634 40.2874 7.12798C40.2874 7.70332 40.0784 8.15949 39.6604 8.49647C39.2424 8.83346 38.675 9.00195 37.9584 9.00195Z" fill="#8C8C8C"/>
<path d="M43.4571 9.00195C43.1158 9.00195 42.7874 8.96086 42.4717 8.87867C42.156 8.78825 41.866 8.66497 41.6015 8.5088C41.337 8.34442 41.1067 8.14716 40.9105 7.91702L41.8063 7.05401C42.0195 7.29236 42.2627 7.47319 42.5357 7.59647C42.8172 7.71154 43.1329 7.76908 43.4827 7.76908C43.7983 7.76908 44.0372 7.72387 44.1993 7.63346C44.3614 7.54305 44.4424 7.41154 44.4424 7.23894C44.4424 7.05812 44.3656 6.91839 44.2121 6.81976C44.0585 6.72113 43.858 6.63894 43.6106 6.57319C43.3717 6.49921 43.1158 6.42524 42.8428 6.35127C42.5783 6.2773 42.3224 6.17867 42.075 6.05538C41.8361 5.92387 41.6399 5.74716 41.4863 5.52524C41.3328 5.30332 41.256 5.01565 41.256 4.66223C41.256 4.28414 41.3456 3.95949 41.5247 3.68825C41.7124 3.41702 41.9726 3.20743 42.3053 3.05949C42.6466 2.91154 43.0518 2.83757 43.521 2.83757C44.0159 2.83757 44.451 2.92387 44.8263 3.09647C45.2102 3.26086 45.5302 3.51154 45.7861 3.84853L44.8903 4.71154C44.7112 4.49784 44.5064 4.33757 44.2761 4.23072C44.0457 4.12387 43.7812 4.07045 43.4827 4.07045C43.2011 4.07045 42.9836 4.11154 42.83 4.19373C42.6765 4.27593 42.5997 4.3951 42.5997 4.55127C42.5997 4.71565 42.6765 4.84305 42.83 4.93346C42.9836 5.02387 43.1798 5.10195 43.4187 5.16771C43.6661 5.23346 43.922 5.30743 44.1865 5.38962C44.4595 5.4636 44.7154 5.57045 44.9543 5.71017C45.2017 5.84168 45.4022 6.0225 45.5558 6.25264C45.7093 6.47456 45.7861 6.76634 45.7861 7.12798C45.7861 7.70332 45.5771 8.15949 45.159 8.49647C44.741 8.83346 44.1737 9.00195 43.4571 9.00195Z" fill="#8C8C8C"/>
<path d="M49.7004 8.87867V0.248528H51.1721V8.87867H49.7004ZM55.3951 8.87867V0.248528H56.8667V8.87867H55.3951ZM50.7114 5.05675V3.76223H55.715V5.05675H50.7114Z" fill="#8C8C8C"/>
<path d="M58.6316 8.87867V2.96086H60.0392V8.87867H58.6316ZM59.3354 1.87593C59.0965 1.87593 58.8961 1.79784 58.734 1.64168C58.5804 1.48551 58.5036 1.29236 58.5036 1.06223C58.5036 0.83209 58.5804 0.638939 58.734 0.482775C58.8961 0.32661 59.0965 0.248528 59.3354 0.248528C59.5828 0.248528 59.7833 0.32661 59.9369 0.482775C60.0904 0.638939 60.1672 0.83209 60.1672 1.06223C60.1672 1.29236 60.0904 1.48551 59.9369 1.64168C59.7833 1.79784 59.5828 1.87593 59.3354 1.87593Z" fill="#8C8C8C"/>
<path d="M61.6181 8.87867V0.00195312H63.0257V8.87867H61.6181Z" fill="#8C8C8C"/>
<path d="M64.5923 8.87867V0.00195312H66V8.87867H64.5923Z" fill="#8C8C8C"/>
</g>
</svg>
