<svg width="32" height="32" viewBox="0 0 32 32" fill="none" xmlns="http://www.w3.org/2000/svg">
<g id="Vkontakte (VK)" clip-path="url(#clip0_37_2977)">
<rect id="Rectangle" y="0.00195312" width="32" height="32" rx="15.5" fill="#2787F5"/>
<path id="Vector" fill-rule="evenodd" clip-rule="evenodd" d="M26.1778 11.0251C26.3262 10.5307 26.1779 10.1672 25.472 10.1672H23.1381C22.5447 10.1672 22.2713 10.4811 22.1229 10.8274C22.1229 10.8274 20.936 13.7202 19.2546 15.5993C18.7106 16.1433 18.4634 16.3162 18.1666 16.3162C18.0183 16.3162 17.8036 16.1433 17.8036 15.6488V11.0251C17.8036 10.4316 17.6314 10.1672 17.1367 10.1672H13.4692C13.0985 10.1672 12.8754 10.4426 12.8754 10.7037C12.8754 11.2663 13.7159 11.396 13.8026 12.9784V16.4154C13.8026 17.1689 13.6666 17.3056 13.3699 17.3056C12.5787 17.3056 10.6542 14.3996 9.51263 11.0746C9.28891 10.4283 9.06452 10.1672 8.46805 10.1672H6.13417C5.46735 10.1672 5.33398 10.4811 5.33398 10.8274C5.33398 11.4455 6.12534 14.5116 9.01818 18.5665C10.947 21.3355 13.6639 22.8369 16.1365 22.8369C17.6202 22.8369 17.8036 22.5034 17.8036 21.9291V19.8362C17.8036 19.1693 17.9441 19.0363 18.4137 19.0363C18.7601 19.0363 19.3534 19.2093 20.7382 20.5445C22.3206 22.1267 22.5813 22.8369 23.4716 22.8369H25.8054C26.4723 22.8369 26.8057 22.5034 26.6133 21.8455C26.4029 21.1896 25.6474 20.2384 24.6448 19.1105C24.1009 18.4675 23.2848 17.7752 23.0378 17.4291C22.6915 16.984 22.7904 16.7863 23.0378 16.3909C23.0378 16.3909 25.8811 12.3853 26.1778 11.0253V11.0251Z" fill="white"/>
</g>
<defs>
<clipPath id="clip0_37_2977">
<rect width="32" height="32" fill="white" transform="translate(0 0.00195312)"/>
</clipPath>
</defs>
</svg>
